<svg id="Слой_1" data-name="Слой 1" xmlns="http://www.w3.org/2000/svg" viewBox="0 0 120 120"><defs><style>.cls-1{fill:#6b7892;}.cls-2{fill:#a0bebe;}.cls-3{fill:#262626;}.cls-4{fill:#646464;}.cls-5{fill:gold;}</style></defs><title>faviconlit</title><rect class="cls-1" x="-0.27" y="-0.27" width="120.54" height="120.54"/><rect class="cls-2" x="-36.86" y="-69.56" width="161.15" height="120.54" transform="translate(8.68 18.45) rotate(-26.37)"/><path class="cls-3" d="M89.37,36V12h-54a18,18,0,0,0-18,18V90a18,18,0,0,0,18,18h66V36Zm-54-12h42V36h-42a6,6,0,1,1,0-12Zm54,72h-54a6,6,0,0,1-6-6V47a17.79,17.79,0,0,0,6,1h54Z"/><path class="cls-4" d="M77.37,24V36h-42a6,6,0,1,1,0-12Z"/><path class="cls-5" d="M35.37,48a17.79,17.79,0,0,1-6-1V90a6,6,0,0,0,6,6h54V48Zm42,21h-36V57h36Z"/><rect class="cls-3" x="41.37" y="57" width="36" height="12"/></svg>